<svg width="283" height="134" viewBox="0 0 283 134" fill="none" xmlns="http://www.w3.org/2000/svg">
<g clip-path="url(#clip0_1099_45150)">
<path d="M22.7836 73.9773C21.9373 74.505 20.9077 74.9113 19.691 75.194C18.4742 75.4748 17.1798 75.6162 15.8058 75.6162C12.0699 75.6162 9.19828 74.7002 7.18896 72.8681C5.17963 71.036 4.17597 68.3039 4.17597 64.6736V55.0532H0V47.5457H4.17597V40.092H14.2206V47.5457H20.7763V55.0532H14.2206V64.568C14.2206 65.5896 14.4934 66.3921 15.0391 66.9736C15.5847 67.5551 16.3156 67.8458 17.2336 67.8458C18.3966 67.8458 19.4182 67.5471 20.3003 66.9477L22.7856 73.9793L22.7836 73.9773Z" fill="white"/>
<path d="M50.96 63.3513H30.1319C30.5541 64.8309 31.3745 65.968 32.5893 66.7605C33.806 67.5531 35.3295 67.9494 37.1615 67.9494C38.5356 67.9494 39.7245 67.7562 40.7301 67.3679C41.7338 66.9796 42.7474 66.3463 43.769 65.4642L49.0562 70.9624C46.2722 74.0629 42.2018 75.6142 36.8449 75.6142C33.4954 75.6142 30.5541 74.979 28.017 73.7105C25.48 72.4419 23.5145 70.6796 22.1225 68.4233C20.7305 66.1691 20.0335 63.6122 20.0335 60.7585C20.0335 57.9049 20.7126 55.4117 22.0687 53.1734C23.4249 50.935 25.3008 49.1826 27.6984 47.9141C30.0941 46.6456 32.7904 46.0104 35.7875 46.0104C38.7845 46.0104 41.232 46.5998 43.5579 47.7807C45.8839 48.9616 47.7259 50.6702 49.0821 52.9085C50.4382 55.1468 51.1173 57.7973 51.1173 60.8641C51.1173 60.9358 51.0635 61.7622 50.958 63.3493L50.96 63.3513ZM31.956 54.4697C30.9165 55.3519 30.2554 56.5487 29.9746 58.0642H41.7099C41.4271 56.5487 40.766 55.3519 39.7285 54.4697C38.6889 53.5896 37.3925 53.1475 35.8432 53.1475C34.2939 53.1475 32.9975 53.5876 31.958 54.4697H31.956Z" fill="white"/>
<path d="M82.2548 75.1403H72.6861V72.2846C70.8182 74.505 68.0163 75.6162 64.2804 75.6162C61.6717 75.6162 59.294 75.0088 57.1433 73.7921C54.9925 72.5754 53.2919 70.8409 52.0413 68.5846C50.7907 66.3304 50.1654 63.7217 50.1654 60.7605C50.1654 57.7993 50.7907 55.2006 52.0413 52.9623C53.2919 50.724 54.9925 49.0074 57.1433 47.8086C59.292 46.6098 61.6717 46.0104 64.2804 46.0104C67.6977 46.0104 70.3423 46.9981 72.2102 48.9715V35.9141H82.2548V75.1403ZM70.6768 65.8107C71.804 64.5959 72.3675 62.9132 72.3675 60.7625C72.3675 58.6118 71.8119 56.9908 70.7027 55.794C69.5935 54.5972 68.1557 53.9958 66.3953 53.9958C64.6349 53.9958 63.1872 54.5952 62.06 55.794C60.9309 56.9928 60.3693 58.6497 60.3693 60.7625C60.3693 62.8754 60.9329 64.5959 62.06 65.8107C63.1872 67.0274 64.6329 67.6348 66.3953 67.6348C68.1577 67.6348 69.5497 67.0274 70.6768 65.8107Z" fill="white"/>
<path d="M115.189 75.1403H105.62V72.2846C103.752 74.505 100.95 75.6162 97.2142 75.6162C94.6055 75.6162 92.2278 75.0088 90.077 73.7921C87.9263 72.5754 86.2257 70.8409 84.9751 68.5846C83.7245 66.3304 83.0992 63.7217 83.0992 60.7605C83.0992 57.7993 83.7245 55.2006 84.9751 52.9623C86.2257 50.724 87.9263 49.0074 90.077 47.8086C92.2258 46.6098 94.6055 46.0104 97.2142 46.0104C100.631 46.0104 103.276 46.9981 105.144 48.9715V35.9141H115.189V75.1403ZM103.611 65.8107C104.738 64.5959 105.301 62.9132 105.301 60.7625C105.301 58.6118 104.746 56.9908 103.637 55.794C102.527 54.5972 101.09 53.9958 99.3291 53.9958C97.5687 53.9958 96.121 54.5952 94.9938 55.794C93.8647 56.9928 93.3031 58.6497 93.3031 60.7625C93.3031 62.8754 93.8667 64.5959 94.9938 65.8107C96.121 67.0274 97.5667 67.6348 99.3291 67.6348C101.091 67.6348 102.483 67.0274 103.611 65.8107Z" fill="white"/>
<path d="M147.858 46.4883L135.487 76.3032C134.041 79.828 132.279 82.3033 130.2 83.7311C128.121 85.1589 125.582 85.8718 122.587 85.8718C121.071 85.8718 119.548 85.6348 118.014 85.1589C116.481 84.683 115.238 84.0577 114.289 83.283L117.777 76.2515C118.341 76.7792 119.02 77.1934 119.813 77.4941C120.605 77.7928 121.406 77.9441 122.218 77.9441C123.17 77.9441 123.953 77.749 124.57 77.3627C125.185 76.9743 125.707 76.359 126.129 75.5127L113.864 46.4903H124.172L131.203 63.9885L138.287 46.4903H147.856L147.858 46.4883Z" fill="white"/>
<path d="M173.57 61.3195C174.877 62.823 175.532 64.6431 175.532 66.7799C175.532 68.5223 175.06 70.1393 174.12 71.6289C173.178 73.1184 171.744 74.3192 169.821 75.2333C167.895 76.1453 165.513 76.6033 162.675 76.6033C160.594 76.6033 158.537 76.3504 156.5 75.8446C154.463 75.3388 152.699 74.6219 151.209 73.6939L154.244 67.4131C155.397 68.1997 156.695 68.8051 158.143 69.2253C159.591 69.6474 161.017 69.8585 162.423 69.8585C163.828 69.8585 164.993 69.5917 165.838 69.058C166.68 68.5243 167.102 67.7656 167.102 66.7818C167.102 64.8701 165.599 63.9143 162.592 63.9143H159.093V58.6451L164.362 52.9537H152.726V46.5036H174.058V51.731L167.945 58.3085C170.39 58.8143 172.266 59.82 173.572 61.3215L173.57 61.3195Z" fill="white"/>
<path d="M195.261 58.3683C196.806 59.1409 198.037 60.2382 198.949 61.656C199.861 63.0759 200.319 64.6989 200.319 66.525C200.319 68.5203 199.805 70.2847 198.78 71.8161C197.754 73.3494 196.362 74.5283 194.606 75.3567C192.849 76.1851 190.888 76.6013 188.725 76.6013C184.509 76.6013 181.178 75.3508 178.734 72.8496C176.289 70.3484 175.066 66.752 175.066 62.0563C175.066 58.6849 175.719 55.7815 177.026 53.35C178.332 50.9205 180.166 49.0705 182.528 47.806C184.89 46.5415 187.63 45.9082 190.748 45.9082C192.435 45.9082 194.036 46.0914 195.554 46.4558C197.071 46.8222 198.363 47.3559 199.433 48.0569L196.398 54.043C194.964 53.0314 193.152 52.5256 190.959 52.5256C188.767 52.5256 187.094 53.115 185.774 54.2959C184.451 55.4768 183.693 57.1774 183.498 59.3958C185.184 57.9341 187.405 57.2033 190.159 57.2033C192.015 57.2033 193.713 57.5896 195.261 58.3623V58.3683ZM191.109 69.6455C191.853 68.9704 192.226 68.0583 192.226 66.9053C192.226 65.7523 191.853 64.8821 191.109 64.207C190.364 63.5319 189.386 63.1954 188.179 63.1954C186.973 63.1954 185.987 63.5399 185.228 64.2289C184.469 64.9179 184.091 65.824 184.091 66.9471C184.091 68.0703 184.463 68.9365 185.208 69.6235C185.953 70.3126 186.959 70.6571 188.223 70.6571C189.404 70.6571 190.366 70.3205 191.111 69.6455H191.109Z" fill="white"/>
<path d="M205.546 74.7892C203.579 73.5804 202.04 71.8161 200.93 69.4981C199.819 67.1801 199.265 64.432 199.265 61.2558C199.265 58.0795 199.819 55.3334 200.93 53.0134C202.04 50.6955 203.579 48.9311 205.546 47.7224C207.514 46.5136 209.762 45.9102 212.291 45.9102C214.82 45.9102 217.027 46.5156 218.994 47.7224C220.962 48.9311 222.499 50.6955 223.61 53.0134C224.72 55.3314 225.275 58.0795 225.275 61.2558C225.275 64.432 224.72 67.1781 223.61 69.4981C222.499 71.8161 220.962 73.5804 218.994 74.7892C217.027 75.998 214.792 76.6013 212.291 76.6013C209.79 76.6013 207.514 75.998 205.546 74.7892ZM215.643 67.7278C216.471 66.3657 216.887 64.207 216.887 61.2558C216.887 58.3045 216.473 56.1479 215.643 54.7838C214.812 53.4197 213.695 52.7386 212.291 52.7386C210.887 52.7386 209.726 53.4197 208.898 54.7838C208.067 56.1479 207.653 58.3045 207.653 61.2558C207.653 64.207 208.067 66.3637 208.898 67.7278C209.726 69.0918 210.857 69.7729 212.291 69.7729C213.725 69.7729 214.812 69.0918 215.643 67.7278Z" fill="white"/>
<path d="M228.633 55.2637C227.756 54.8415 227.067 54.2541 226.566 53.5073C226.064 52.7585 225.813 51.9122 225.813 50.9683C225.813 50.0244 226.064 49.178 226.566 48.4293C227.067 47.6805 227.756 47.0951 228.633 46.6729C229.509 46.2487 230.499 46.0376 231.6 46.0376C232.701 46.0376 233.721 46.2487 234.597 46.6729C235.473 47.0971 236.156 47.6825 236.65 48.4293C237.142 49.178 237.389 50.0244 237.389 50.9683C237.389 51.9122 237.142 52.7605 236.65 53.5073C236.158 54.2561 235.473 54.8415 234.597 55.2637C233.721 55.6879 232.721 55.899 231.6 55.899C230.479 55.899 229.509 55.6879 228.633 55.2637ZM233.048 52.5017C233.422 52.1273 233.609 51.6155 233.609 50.9663C233.609 50.3171 233.422 49.7814 233.048 49.415C232.673 49.0506 232.191 48.8694 231.6 48.8694C231.008 48.8694 230.526 49.0526 230.152 49.415C229.778 49.7794 229.591 50.2972 229.591 50.9663C229.591 51.6354 229.778 52.1273 230.152 52.5017C230.526 52.876 231.008 53.0632 231.6 53.0632C232.191 53.0632 232.673 52.876 233.048 52.5017Z" fill="white"/>
<path d="M255.552 32.3978C255.55 31.2647 255.383 30.1475 255.202 29.0344C254.977 27.6504 254.652 26.2823 254.204 24.958C253.493 22.8551 252.583 20.8398 251.354 18.9739C250.265 17.3211 248.979 15.8395 247.515 14.5291C245.85 13.0376 243.98 11.8288 241.941 10.8889C240.264 10.1162 238.522 9.54273 236.731 9.12653C235.479 8.83579 234.208 8.6247 232.912 8.57293C232.414 8.55301 231.918 8.40964 231.408 8.47336C230.924 8.36184 230.429 8.4873 229.943 8.40366C229.793 8.40366 229.642 8.40366 229.493 8.40366C229.007 8.4873 228.511 8.36184 228.025 8.47336C227.101 8.38176 226.185 8.53907 225.269 8.60877C224.008 8.70635 222.754 8.89354 221.503 9.09865C219.5 9.42723 217.528 9.90317 215.583 10.4667C212.522 11.3549 209.553 12.4959 206.655 13.8262C201.655 16.1222 196.927 18.9022 192.365 21.965C189.627 23.803 187.016 25.8163 184.573 28.0427C183.543 28.9806 182.587 30.0042 181.424 30.7967C180.363 31.5196 179.244 32.0772 177.957 32.2544C177.772 32.3162 177.569 32.2285 177.388 32.3241C177.149 32.3241 176.91 32.3241 176.671 32.3261C176.458 32.2126 176.217 32.3301 176 32.2465C175.781 32.1409 175.54 32.2664 175.309 32.1549C175.08 32.0453 174.751 32.0852 174.691 31.7486C174.636 31.432 174.843 31.1751 175.034 30.9879C176.043 30.0062 177.057 29.0264 178.112 28.0964C179.552 26.8299 180.96 25.5255 182.44 24.3008C183.704 23.2554 184.947 22.184 186.233 21.1664C189.593 18.5039 193.084 16.0227 196.726 13.7585C199.849 11.8189 203.061 10.0406 206.38 8.45743C208.856 7.27654 211.369 6.18526 213.944 5.23737C219.406 3.22408 224.998 1.68873 230.745 0.742822C232.902 0.388356 235.077 0.149391 237.261 0.0418561C237.482 -0.0358078 237.713 0.0219423 237.938 0.00401984C238.235 0.00401984 238.532 0.00401984 238.828 0.00401984C239.603 0.00401984 240.376 0.00401984 241.15 0.00401984C241.409 0.00401984 241.67 0.00401984 241.929 0.00401984C242.114 0.00401984 242.301 0.00401984 242.487 0.00401984C246.696 -0.0178853 250.733 0.904124 254.66 2.33593C258.523 3.74383 262.104 5.68742 265.288 8.30608C268.508 10.9546 271.087 14.1289 273.023 17.8309C275.386 22.3533 276.621 27.1963 277.24 32.2305C277.591 35.0782 277.663 37.9378 277.547 40.7935C277.432 43.6889 277.017 46.5605 276.37 49.3902C276.241 49.9598 276.131 50.5293 276.143 51.1188C276.163 52.1822 276.643 52.8134 277.704 53.0444C278.595 53.2396 279.505 53.3431 280.367 53.6498C281.239 53.9605 282.171 54.0979 283 54.538V54.757C282.771 54.7172 282.635 54.8805 282.476 54.994C278.824 57.5927 275.163 60.1815 271.521 62.7922C269.203 64.455 266.839 66.0481 264.488 67.6572C263.581 68.2765 262.811 69.0969 261.968 69.8138C261.5 70.2121 261.013 70.5865 260.443 70.8394C259.553 71.2317 258.896 71.0445 258.332 70.2539C257.779 69.4753 257.388 68.6091 256.974 67.7567C255.946 65.6459 255.06 63.4713 254.124 61.3186C253.463 59.7992 252.73 58.3116 252.033 56.8081C251.326 55.2867 250.633 53.7573 249.918 52.2399C248.947 50.1709 247.957 48.1098 246.981 46.0427C246.822 45.7042 246.692 45.3537 246.533 44.9674C248.182 45.3477 249.833 45.5708 251.368 46.2757C252.077 46.6023 252.854 46.7776 253.579 46.2419C254.13 45.8336 254.409 45.2223 254.538 44.601C254.903 42.8406 255.216 41.0723 255.345 39.272C255.405 38.4337 255.584 37.6053 255.55 36.7589C255.644 36.5319 255.546 36.285 255.626 36.056C255.672 35.0304 255.688 34.0048 255.616 32.9813C255.562 32.7881 255.632 32.581 255.55 32.3918L255.552 32.3978Z" fill="#EB6625"/>
<path d="M183.001 133.988C182.05 133.988 181.098 133.99 180.148 133.992C179.716 133.984 179.285 133.978 178.853 133.97C178.569 133.843 178.258 133.98 177.969 133.888C177.752 133.879 177.537 133.871 177.32 133.861C177.111 133.739 176.868 133.867 176.655 133.777C176.509 133.769 176.366 133.761 176.221 133.755C176.051 133.636 175.844 133.755 175.671 133.669C173.477 133.438 171.326 132.988 169.195 132.423C164.888 131.28 160.895 129.482 157.296 126.829C155.789 125.718 154.367 124.509 153.085 123.147C151.41 121.365 149.94 119.419 148.707 117.304C147.351 114.976 146.248 112.535 145.461 109.956C144.856 107.973 144.346 105.969 144.054 103.91C143.908 102.883 143.777 101.857 143.685 100.824C143.611 100.611 143.729 100.374 143.608 100.166C143.6 99.9116 143.59 99.6567 143.582 99.4038C143.49 99.0354 143.623 98.651 143.504 98.2846C143.504 97.0977 143.504 95.9109 143.502 94.724C143.627 94.3238 143.49 93.9076 143.578 93.5053C143.59 93.1827 143.6 92.8581 143.611 92.5355C143.735 92.2467 143.598 91.9361 143.693 91.6453C143.701 91.3924 143.709 91.1415 143.717 90.8886C143.839 90.6397 143.717 90.3689 143.793 90.116C143.805 89.8292 143.817 89.5405 143.829 89.2537C143.948 88.965 143.821 88.6563 143.904 88.3635C143.787 87.5132 144.388 87.2085 145.013 86.9576C145.683 86.6888 146.387 86.5335 147.11 86.4717C147.435 86.4319 147.762 86.422 148.086 86.4777C149.385 86.5952 150.641 86.9397 151.922 87.1548C152.055 87.4037 151.892 87.6905 152.023 87.9414C152.033 88.3018 152.043 88.6603 152.053 89.0207C152.133 89.2417 152.023 89.4847 152.131 89.7018C152.141 89.875 152.151 90.0502 152.161 90.2235C152.246 90.3987 152.127 90.6039 152.246 90.7731C152.376 92.7506 152.903 94.6364 153.547 96.4963C154.556 99.4197 156.1 102.022 158.171 104.32C161.534 108.052 165.752 110.293 170.591 111.438C171.816 111.726 173.05 111.993 174.319 111.999C174.5 112.097 174.707 112.001 174.89 112.077C175.141 112.087 175.39 112.097 175.641 112.107C176.077 112.228 176.527 112.101 176.967 112.18C177.555 112.232 178.142 112.224 178.73 112.184C179.238 112.091 179.757 112.242 180.263 112.103C180.554 112.093 180.847 112.083 181.137 112.075C181.355 111.997 181.595 112.111 181.809 111.999C183.913 111.922 185.975 111.531 188.024 111.085C191.706 110.285 195.26 109.08 198.722 107.592C202.864 105.81 206.823 103.685 210.676 101.345C213.657 99.5352 216.509 97.5378 219.283 95.4349C220.587 94.4452 221.866 93.4157 223.088 92.3204C224.209 91.3148 225.366 90.3509 226.502 89.3592C226.721 89.1681 226.904 88.9371 227.105 88.728C228.162 87.6307 229.355 86.6749 230.405 85.5637C231.217 84.7054 232.318 84.4246 233.487 84.4266C242.22 84.4425 250.954 84.4565 259.686 84.4804C259.937 84.4804 260.256 84.331 260.429 84.6516C260.618 85.0021 260.467 85.2789 260.25 85.5816C258.221 88.4273 256.108 91.2072 253.881 93.9056C251.661 96.5959 249.351 99.2026 246.943 101.73C244.243 104.565 241.391 107.234 238.432 109.791C234.861 112.877 231.104 115.717 227.155 118.3C225.584 119.328 223.969 120.289 222.373 121.281C220.253 122.458 218.134 123.639 215.951 124.702C213.275 126.007 210.554 127.209 207.778 128.281C202.73 130.23 197.578 131.839 192.273 132.931C190.029 133.393 187.759 133.665 185.481 133.883C184.652 133.962 183.822 133.946 182.993 134L183.001 133.988Z" fill="#EB6625"/>
</g>
<defs>
<clipPath id="clip0_1099_45150">
<rect width="283" height="134" fill="white"/>
</clipPath>
</defs>
</svg>
